#!OML:ASF G:\ViconDB\ViconDB\414\test\team2\shane.ASF
:FULLY-SPECIFIED
:DEGREES
163
root 6.62803 14.6189 -11.0588 91.9626 184.896 -38.2725
lowerback 26.3839 5.39972 3.83558
upperback 9.49675 7.27015 5.83417
thorax -4.27543 3.21747 2.08579
lowerneck -30.166 -3.16478 -0.155437
upperneck 4.74022 -4.32911 -0.884919
head 6.00916 -2.29881 -0.846929
rclavicle -5.40694e-014 1.90833e-014
rhumerus 62.9799 -28.1291 -68.6894
rradius 24.3974
rwrist -4.54332
rhand -44.6867 -77.2309
rfingers 7.12502
rthumb -17.4822 -253.535
lclavicle -5.40694e-014 1.90833e-014
lhumerus -20.8074 -32.154 5.06824
lradius 26.2613
lwrist 29.7827
lhand -50.0534 30.4329
lfingers 7.12502
lthumb -22.6404 59.125
rfemur -85.0022 -26.6148 -3.33412
rtibia 69.9417
rfoot -40.5083 -11.3944
rtoes -15.1811
lfemur 2.626 4.6483 -5.52551
ltibia 56.2311
lfoot -3.26114 -0.234036
ltoes -4.67436
164
root 6.69138 14.4645 -10.8356 90.0796 187.193 -37.4463
lowerback 26.81 5.85444 3.78066
upperback 9.17657 7.89735 5.74529
thorax -4.84286 3.50215 1.78777
lowerneck -29.4247 -3.22919 -0.940582
upperneck 5.00209 -4.09133 -1.16912
head 6.00734 -2.22749 -0.782368
rclavicle 2.8625e-014 3.18055e-015
rhumerus 60.7014 -28.9863 -69.6101
rradius 23.6137
rwrist -3.75849
rhand -44.3797 -76.2368
rfingers 7.12502
rthumb -17.1867 -254.503
lclavicle 2.8625e-014 3.18055e-015
lhumerus -24.3188 -31.9899 8.73788
lradius 25.7457
lwrist 29.034
lhand -48.923 28.8735
lfingers 7.12502
lthumb -21.5551 57.694
rfemur -84.8538 -26.0818 -0.598896
rtibia 71.4898
rfoot -43.7222 -13.3408
rtoes -24.7633
lfemur 1.25869 5.29901 -5.46138
ltibia 56.5396
lfoot -4.60903 -1.36357
ltoes -5.18174
165
root 6.74578 14.3344 -10.6227 88.3047 189.455 -36.2048
lowerback 27.2253 6.43564 4.06106
upperback 8.8711 8.76438 5.28789
thorax -5.27587 3.91848 0.826645
lowerneck -29.5063 -3.2578 -0.689833
upperneck 5.59447 -4.13947 -1.61882
head 6.20198 -2.28144 -0.986672
rclavicle 3.81667e-014 3.18055e-014
rhumerus 57.86 -30.2835 -70.0095
rradius 23.2784
rwrist -3.4894
rhand -43.7221 -75.261
rfingers 7.12502
rthumb -16.5536 -255.425
lclavicle 3.81667e-014 3.18055e-014
lhumerus -26.9962 -31.6374 11.4089
lradius 25.6077
lwrist 29.1471
lhand -47.654 27.9469
lfingers 7.12502
lthumb -20.3359 56.9022
rfemur -84.5961 -24.6771 1.5496
rtibia 72.8537
rfoot -46.2457 -11.0042
rtoes -20.5923
lfemur -0.315409 6.05729 -5.57681
ltibia 56.9087
lfoot -5.83026 -2.67848
ltoes -5.29397
166
root 6.79551 14.2379 -10.4178 86.7506 191.514 -34.4265
lowerback 27.5351 7.07648 4.33956
upperback 8.44546 9.72317 4.82625
thorax -5.7645 4.37465 -0.170341
lowerneck -29.4037 -3.17919 -0.722977
upperneck 5.98016 -3.94694 -2.13683
head 6.30975 -2.23985 -1.13414
rclavicle -1.43125e-013 -2.54444e-014
rhumerus 55.0556 -31.4454 -70.1554
rradius 22.9244
rwrist -2.8068
rhand -42.8951 -73.2381
rfingers 7.12502
rthumb -15.7573 -257.383
lclavicle -1.43125e-013 -2.54444e-014
lhumerus -29.9418 -31.0109 14.3301
lradius 25.2899
lwrist 29.0591
lhand -46.4989 26.5033
lfingers 7.12502
lthumb -19.2255 55.573
rfemur -85.1794 -23.0925 4.50864
rtibia 73.9624
rfoot -48.523 -7.26655
rtoes -15.3931
lfemur -2.11846 7.16959 -6.03988
ltibia 56.7719
lfoot -6.60509 -4.38379
ltoes -5.6769
167
root 6.84296 14.1558 -10.2095 85.0336 193.175 -32.6828
lowerback 27.8663 7.63723 4.35789
upperback 8.22973 10.4726 4.31225
thorax -6.04377 4.7322 -1.01215
lowerneck -29.9416 -2.83912 -0.434583
upperneck 6.67127 -3.48156 -2.86588
head 6.6059 -2.08558 -1.3835
rclavicle -1.97194e-013 -1.31993e-013
rhumerus 54.0608 -33.03 -72.4657
rradius 22.016
rwrist -0.241438
rhand -42.0627 -71.4504
rfingers 7.12502
rthumb -14.9556 -259.11
lclavicle -1.97194e-013 -1.31993e-013
lhumerus -32.8469 -29.3304 16.7362
lradius 24.9085
lwrist 28.4316
lhand -44.7809 24.7178
lfingers 7.12502
lthumb -17.5728 53.9436
rfemur -87.0618 -22.1791 9.39812
rtibia 75.448
rfoot -49.1003 -10.1172
rtoes -17.9792
lfemur -3.74723 8.02034 -6.87977
ltibia 56.406
lfoot -7.496 -6.10156
ltoes -6.95303
168
root 6.86583 14.1768 -10.1601 83.2212 194.654 -31.0332
lowerback 28.396 8.04875 4.39959
upperback 8.09521 11.0228 3.86601
thorax -6.32695 4.9842 -1.75429
lowerneck -30.5403 -2.40273 -0.49928
upperneck 7.10653 -2.80376 -3.32761
head 6.84362 -1.82185 -1.45686
rclavicle 1.145e-013 -4.77083e-014
rhumerus 52.4983 -33.9235 -73.2947
rradius 21.5775
rwrist 0.848385
rhand -41.0186 -69.0669
rfingers 7.12502
rthumb -13.9496 -261.421
lclavicle 1.145e-013 -4.77083e-014
lhumerus -35.722 -27.2497 19.0332
lradius 24.3159
lwrist 27.7414
lhand -43.2027 23.1925
lfingers 7.12502
lthumb -16.0536 52.5475
rfemur -87.2575 -21.028 13.522
rtibia 76.3491
rfoot -49.6596 -12.0344
rtoes -17.5314
lfemur -5.24936 8.46235 -8.21429
ltibia 55.2479
lfoot -7.91062 -7.96839
ltoes -7.71985
169
root 6.91476 14.1462 -9.94437 81.4936 195.809 -29.4864
lowerback 28.7608 8.37866 4.39846
upperback 8.06533 11.4266 3.32035
thorax -6.39521 5.17933 -2.50956
lowerneck -31.002 -1.79605 -0.360613
upperneck 7.08472 -1.99448 -3.82862
head 6.91144 -1.49717 -1.54634
rclavicle -2.8625e-014 -5.56597e-014
rhumerus 51.8212 -35.1551 -74.813
rradius 20.8768
rwrist 2.65066
rhand -39.7819 -66.4391
rfingers 7.12502
rthumb -12.7576 -263.971
lclavicle -2.8625e-014 -5.56597e-014
lhumerus -38.0703 -24.1184 20.5426
lradius 23.3538
lwrist 25.2066
lhand -41.3804 21.2142
lfingers 7.12502
lthumb -14.2982 50.7019
rfemur -87.9694 -19.6367 15.8474
rtibia 77.6568
rfoot -49.6761 -12.7277
rtoes -17.0943
lfemur -6.75043 8.82592 -9.50944
ltibia 54.2064
lfoot -8.8289 -9.14893
ltoes -8.8424
170
root 6.9592 14.1451 -9.75602 79.5651 197.054 -27.8788
lowerback 29.2122 8.70651 4.48587
upperback 8.09182 11.8413 2.92159
thorax -6.44448 5.37145 -3.16548
lowerneck -31.237 -1.07065 0.130986
upperneck 6.76924 -1.13466 -4.69285
head 6.85338 -1.17555 -1.80002
rclavicle -2.22639e-014 7.31528e-014
rhumerus 51.1879 -36.1603 -76.2179
rradius 20.0938
rwrist 5.0437
rhand -38.5792 -64.0586
rfingers 7.12502
rthumb -11.5979 -266.282
lclavicle -2.22639e-014 7.31528e-014
lhumerus -40.5457 -21.9957 22.5979
lradius 22.2575
lwrist 23.0414
lhand -40.1117 19.7631
lfingers 7.12502
lthumb -13.0755 49.3332
rfemur -87.6999 -17.8044 17.1777
rtibia 78.6438
rfoot -49.4174 -13.8723
rtoes -16.9442
lfemur -7.92165 9.14967 -10.5608
ltibia 52.7312
lfoot -9.41543 -10.125
ltoes -8.74464
171
root 6.99669 14.1556 -9.56633 77.7228 198.139 -26.386
lowerback 29.4108 8.96889 4.46847
upperback 8.06735 12.1475 2.63299
thorax -6.47953 5.51275 -3.58785
lowerneck -30.8883 -0.344484 0.446886
upperneck 6.18776 -0.252135 -5.34106
head 6.63836 -0.811751 -1.93879
rclavicle 1.68569e-013 -5.64548e-014
rhumerus 49.5119 -36.3154 -76.3206
rradius 19.5821
rwrist 7.59351
rhand -36.7447 -61.3039
rfingers 7.12502
rthumb -9.82834 -268.945
lclavicle 1.68569e-013 -5.64548e-014
lhumerus -43.1209 -19.8628 24.7187
lradius 21.195
lwrist 20.3039
lhand -39.2349 18.3418
lfingers 7.12502
lthumb -12.2302 47.9642
rfemur -87.074 -15.9349 17.4635
rtibia 79.5519
rfoot -49.2815 -14.3861
rtoes -16.9546
lfemur -9.16733 9.41457 -11.7706
ltibia 51.4138
lfoot -10.3832 -9.96284
ltoes -8.87216
172
root 7.027 14.1864 -9.37613 76.1382 198.953 -25.0655
lowerback 29.3418 9.1942 4.19328
upperback 8.16366 12.3097 2.39027
thorax -6.32591 5.5981 -3.73198
lowerneck -30.7907 0.430019 0.834899
upperneck 5.56525 0.682592 -6.23499
head 6.45969 -0.4507 -2.17098
rclavicle -2.44903e-013 -1.43125e-014
rhumerus 46.9953 -35.5399 -74.9753
rradius 19.5573
rwrist 9.7895
rhand -34.6082 -58.5943
rfingers 7.12502
rthumb -7.76665 -448.432
lclavicle -2.44903e-013 -1.43125e-014
lhumerus -45.4791 -17.2827 27.0449
lradius 19.973
lwrist 17.0227
lhand -38.9359 17.2466
lfingers 7.12502
lthumb -11.9419 46.886
rfemur -86.6583 -14.2505 17.1691
rtibia 80.3363
rfoot -48.8845 -14.6569
rtoes -16.9104
lfemur -10.35 9.31406 -13.1262
ltibia 49.8034
lfoot -11.2818 -9.24456
ltoes -8.51561
173
root 7.04678 14.2143 -9.18273 74.7591 199.821 -24.1118
lowerback 29.0432 9.21878 4.08241
upperback 8.14059 12.2825 2.24018
thorax -6.20094 5.59087 -3.78308
lowerneck -30.2047 1.06204 0.846604
upperneck 5.01822 1.53245 -6.69559
head 6.25468 -0.076303 -2.19272
rclavicle -8.26944e-014 -3.10104e-014
rhumerus 43.4163 -33.8731 -72.5589
rradius 20.1213
rwrist 11.9667
rhand -33.0221 -56.4428
rfingers 7.12502
rthumb -6.23554 -446.331
lclavicle -8.26944e-014 -3.10104e-014
lhumerus -47.829 -14.8077 29.5591
lradius 18.8437
lwrist 14.0899
lhand -38.8878 16.5539
lfingers 7.12502
lthumb -11.8954 46.196
rfemur -86.4359 -13.2133 17.1023
rtibia 81.1693
rfoot -48.0329 -15.076
rtoes -17.6872
lfemur -11.512 9.39266 -14.4899
ltibia 48.1131
lfoot -12.1793 -8.43123
ltoes -7.73337
